<?xml version="1.0" standalone="no"?>
<svg viewBox="0 0 200 200" xmlns="http://www.w3.org/2000/svg">
  <path fill="#0F62FE" d="M47.7,-61.8C59.6,-56.9,65.7,-40.1,69.6,-23.7C73.5,-7.2,75.2,8.9,68.7,20.3C62.2,31.7,47.5,38.4,34.7,45.9C21.8,53.4,10.9,61.7,0,61.7C-11,61.8,-22,53.6,-31.4,44.9C-40.8,36.3,-48.6,27.3,-56.5,15.4C-64.4,3.5,-72.4,-11.3,-69.1,-22.9C-65.9,-34.4,-51.5,-42.7,-38.1,-47.1C-24.7,-51.5,-12.3,-52.1,2.8,-55.9C17.9,-59.7,35.7,-66.7,47.7,-61.8Z" transform="translate(100 100)" />
</svg>
